<svg xmlns="http://www.w3.org/2000/svg" xml:space="preserve" width="800" height="800" style="enable-background:new 0 0 122.88 43.49" viewBox="0 -39.69 122.88 122.88"><path d="M103.94 23.97c5.39 0 9.76 4.37 9.76 9.76s-4.37 9.76-9.76 9.76-9.76-4.37-9.76-9.76 4.37-9.76 9.76-9.76zM23 29.07v3.51h3.51A4.796 4.796 0 0 0 23 29.07zm3.52 5.8H23v3.51c1.73-.41 3.09-1.78 3.52-3.51zm-5.81 3.52v-3.51H17.2a4.828 4.828 0 0 0 3.51 3.51zm-3.51-5.8h3.51v-3.51a4.78 4.78 0 0 0-3.51 3.51zm87.89-3.52v3.51h3.51a4.796 4.796 0 0 0-3.51-3.51zm3.51 5.8h-3.51v3.51a4.765 4.765 0 0 0 3.51-3.51zm-5.8 3.52v-3.51h-3.51a4.812 4.812 0 0 0 3.51 3.51zm-3.52-5.8h3.51v-3.51c-1.72.41-3.08 1.78-3.51 3.51zm-49.99-19.8c-1.54-.35-3.07-.35-4.61-.28C56.73 6.18 61.46 2.07 75.57 2.9l-1.94 12.87-23.23.88c.21-.61.33-.94.37-1.55.11-1.74.09-1.95-1.48-2.31zm29.83-9.66L76.6 15.6l24.13-.98c2.48-.1 2.91-1.19 1.41-3.28-.68-.95-1.44-1.89-2.31-2.82-6.24-6.66-12.45-5.28-20.71-5.39zM.46 27.28h.74c.46-2.04 1.37-3.88 2.71-5.53 2.94-3.66 4.28-3.2 8.65-3.99l24.46-4.61C42.45 9.29 49 5.85 56.99 2.95 64.4.25 69.63-.01 77.56 0c4.54.01 9.14.28 13.81.84 2.37.15 4.69.47 6.97.93 2.73.55 5.41 1.31 8.04 2.21l9.8 5.66c2.89 1.67 3.51 3.62 3.88 6.81l1.38 11.78h1.43v6.51c-.2 2.19-1.06 2.52-2.88 2.52h-2.37c.92-20.59-28.05-24.11-27.42 1.63H34.76c3.73-17.75-14.17-23.91-22.96-13.76-2.67 3.09-3.6 7.31-3.36 12.3H2.03c-.51-.24-.91-.57-1.21-.98-1.05-1.43-.82-5.74-.74-8.23.01-.67-.2-.94.38-.94zm21.4-3.31c5.39 0 9.76 4.37 9.76 9.76s-4.37 9.76-9.76 9.76-9.76-4.37-9.76-9.76 4.37-9.76 9.76-9.76z" style="fill-rule:evenodd;clip-rule:evenodd"/></svg>